# xmcd
#
# Track frame offsets:
# 150
# 14748
# 32503
# 46293
# 63150
# 98634
# 115273
# 182901
# 203845
# 220847
# 239242
# 259539
# 272112
# 306847
#
# Disc length: 4462 seconds
#
#
# Revision: 0
# Processed by: cddbd v1.5.1PL2 Copyright (c) Steve Scherf et al.
# Submitted via: FreeRIP 2.945 
#
DISCID=c9116c0e
DTITLE=jesus - todas as musicas
DYEAR=2006
DGENRE=Vocal
TTITLE0=1
TTITLE1=2
TTITLE2=3
TTITLE3=4
TTITLE4=5
TTITLE5=6
TTITLE6=7
TTITLE7=8
TTITLE8=8
TTITLE9=10
TTITLE10=11
TTITLE11=12
TTITLE12=13
TTITLE13=14
EXTD=nao tem
EXTT0=
EXTT1=
EXTT2=
EXTT3=
EXTT4=
EXTT5=
EXTT6=
EXTT7=
EXTT8=
EXTT9=
EXTT10=
EXTT11=
EXTT12=
EXTT13=
PLAYORDER=
